<?xml version="1.0" standalone="no"?>
<!DOCTYPE svg PUBLIC "-//W3C//DTD SVG 20010904//EN"
 "http://www.w3.org/TR/2001/REC-SVG-20010904/DTD/svg10.dtd">
<svg version="1.0" xmlns="http://www.w3.org/2000/svg"
 width="1500.000000pt" height="1500.000000pt" viewBox="0 0 1500.000000 1500.000000"
 preserveAspectRatio="xMidYMid meet">

<g transform="translate(0.000000,1500.000000) scale(0.100000,-0.100000)"
fill="#000000" stroke="none">
<path d="M11998 13776 c-4 -78 -10 -102 -31 -139 -25 -43 -160 -177 -178 -177
-15 0 -10 -27 13 -65 27 -46 28 -136 3 -186 -25 -48 -66 -90 -84 -84 -9 2 -23
0 -31 -5 -12 -8 -13 -15 -1 -52 32 -100 8 -177 -65 -208 -40 -18 -45 -23 -40
-43 4 -12 9 -52 13 -88 5 -63 4 -67 -26 -102 -18 -19 -52 -43 -77 -53 l-44
-17 6 -76 c5 -62 3 -84 -10 -110 -17 -32 -66 -61 -105 -61 -28 0 -31 -32 -9
-102 11 -35 20 -90 21 -124 2 -51 -2 -67 -26 -103 -15 -23 -39 -47 -52 -53
-29 -13 -31 -35 -10 -121 11 -48 11 -67 1 -107 -17 -64 -59 -120 -92 -120 -13
0 -24 -4 -24 -10 0 -5 14 -46 30 -92 17 -45 30 -97 30 -116 0 -47 -27 -99 -61
-119 -18 -11 -25 -21 -19 -28 4 -5 11 -55 15 -110 13 -208 46 -460 70 -530 56
-170 131 -280 267 -395 136 -115 296 -195 463 -232 l60 -13 2 -150 c4 -202 1
-195 66 -192 l52 2 0 167 c0 91 3 169 7 173 4 4 37 13 73 21 230 48 506 243
620 439 37 63 92 222 105 302 6 38 19 176 29 308 l18 240 -38 37 c-56 54 -59
90 -20 208 17 53 31 99 31 103 0 4 -10 7 -23 7 -26 0 -57 29 -80 75 -27 54
-29 93 -12 171 9 42 15 77 13 78 -76 47 -117 110 -118 177 0 19 8 67 19 107
25 98 20 118 -32 125 -30 4 -50 15 -71 38 -28 32 -29 34 -23 116 5 73 4 85
-11 90 -71 23 -105 48 -125 89 -21 45 -21 55 5 164 2 9 -16 24 -47 40 -41 21
-53 33 -69 73 -19 46 -19 50 -3 110 15 56 15 63 1 74 -9 6 -22 9 -30 6 -21 -8
-63 34 -86 84 -28 63 -27 139 3 192 l24 44 -30 21 c-60 42 -158 142 -178 181
-13 27 -22 68 -26 125 -5 77 -8 85 -27 88 -20 3 -22 -2 -26 -92z m145 -417
c-87 -122 -83 -125 -83 59 l0 160 70 -70 70 -70 -57 -79z m-143 54 l-1 -158
-30 35 c-32 36 -109 137 -109 142 0 7 126 137 133 137 4 1 7 -70 7 -156z m-47
-189 l46 -62 1 -202 c1 -111 0 -203 -2 -205 -3 -3 -203 260 -228 301 -12 19
-9 25 33 63 43 40 67 84 82 155 3 16 10 25 14 20 4 -5 29 -37 54 -70z m230 42
c9 -55 36 -102 83 -146 l44 -41 -32 -47 c-17 -26 -44 -63 -58 -82 -15 -19 -54
-72 -87 -118 l-60 -82 -7 46 c-3 26 -6 116 -6 201 l0 155 51 74 c28 41 55 74
59 74 4 0 10 -16 13 -34z m132 -323 c10 -45 51 -99 83 -112 l31 -13 -19 -43
c-21 -49 -145 -223 -259 -364 l-76 -94 -3 171 c-3 198 -11 174 108 322 42 52
85 110 95 128 23 39 31 40 40 5z m-519 -16 c12 -17 52 -68 89 -112 127 -151
125 -144 125 -327 0 -87 -4 -158 -9 -158 -5 0 -16 10 -24 23 -8 12 -32 40 -51
62 -73 81 -255 322 -269 358 l-16 37 35 16 c26 12 41 31 62 75 15 32 29 59 32
59 3 0 15 -15 26 -33z m642 -307 c22 -38 82 -80 117 -80 8 0 15 -3 15 -6 0 -3
-53 -74 -118 -157 -65 -84 -171 -223 -236 -309 -64 -87 -121 -160 -127 -163
-5 -4 -9 57 -9 157 l0 163 91 120 c50 66 123 164 162 217 40 54 74 98 77 98 3
0 15 -18 28 -40z m-584 -203 c69 -86 133 -168 141 -181 13 -19 15 -53 13 -182
l-3 -159 -90 114 c-205 260 -340 428 -372 464 -18 20 -33 39 -33 42 0 3 17 12
37 20 45 19 80 50 100 90 l16 30 33 -40 c18 -22 89 -111 158 -198z m762 -106
c16 -12 41 -25 56 -28 16 -3 28 -11 28 -17 0 -15 -189 -278 -316 -441 -55 -72
-118 -155 -140 -185 -21 -31 -64 -91 -94 -133 l-55 -78 -6 178 c-6 151 -4 182
9 203 14 22 121 158 305 384 32 39 79 104 104 143 l46 73 17 -38 c10 -21 30
-49 46 -61z m-1042 18 c21 -33 87 -116 145 -186 58 -69 148 -175 199 -236 l92
-110 0 -179 c0 -98 -2 -178 -4 -178 -3 0 -50 60 -105 133 -55 72 -130 168
-166 212 -80 98 -330 427 -345 455 -10 18 -7 21 21 27 37 7 96 63 105 98 3 14
9 25 13 25 3 -1 23 -28 45 -61z m1096 -272 c0 -31 37 -92 75 -126 20 -18 35
-37 32 -44 -3 -7 -52 -75 -110 -152 -311 -414 -540 -721 -544 -732 -14 -36
-20 2 -26 155 l-6 167 46 70 c85 129 265 377 367 504 56 70 112 143 126 163
25 37 40 35 40 -5z m-1190 -33 c24 -31 81 -102 127 -158 74 -88 273 -349 371
-485 l32 -45 0 -179 0 -179 -53 68 c-206 267 -383 494 -452 579 -44 55 -106
135 -138 177 l-57 77 44 45 c29 29 49 59 56 88 19 67 19 68 23 68 3 0 24 -25
47 -56z m1313 -381 c9 -17 32 -44 52 -60 l35 -29 -94 -125 c-52 -68 -142 -178
-201 -244 -115 -129 -249 -293 -385 -474 l-85 -112 -3 151 -3 151 68 86 c216
272 459 593 543 717 l33 49 12 -39 c6 -21 19 -53 28 -71z m-1401 29 c54 -80
319 -418 472 -602 l146 -175 0 -149 c0 -82 -2 -147 -4 -145 -2 2 -61 76 -131
164 -146 181 -214 261 -367 425 -59 63 -147 166 -197 229 l-90 114 44 43 c32
31 48 57 60 98 9 31 21 54 26 51 5 -3 23 -27 41 -53z m1438 -312 c0 -31 37
-98 65 -116 l24 -16 -56 -76 c-79 -109 -74 -104 -225 -284 -75 -89 -183 -221
-240 -293 -189 -237 -270 -336 -273 -333 -1 2 -5 60 -8 130 l-7 127 89 118
c172 228 238 310 573 710 47 57 58 63 58 33z m-1419 -137 c156 -175 341 -395
486 -576 l113 -142 0 -135 -1 -135 -37 40 c-20 22 -92 106 -159 185 -277 331
-326 389 -398 470 -41 47 -108 128 -149 181 l-73 95 33 37 c18 20 36 49 40 64
8 40 13 53 18 53 2 0 59 -62 127 -137z m1515 -185 c-27 -397 -95 -580 -290
-774 -127 -126 -323 -230 -473 -251 l-43 -6 0 66 0 65 120 148 c66 82 161 203
212 268 51 66 138 174 193 241 55 66 138 167 185 224 47 56 87 107 88 112 11
29 14 -3 8 -93z m-1636 -43 c77 -87 199 -231 335 -396 72 -86 187 -226 258
-309 l127 -152 0 -64 c0 -64 0 -64 -29 -64 -38 0 -192 45 -244 71 -81 41 -203
126 -254 177 -196 196 -262 371 -298 792 l-7 75 33 -40 c19 -22 54 -63 79 -90z"/>
<path d="M2939 13693 c-61 -59 -88 -94 -115 -151 -61 -126 -82 -284 -55 -417
35 -174 160 -508 223 -597 16 -23 18 -42 16 -135 l-3 -107 -49 84 c-37 65 -78
114 -170 205 -133 133 -246 215 -401 292 -214 107 -391 159 -567 165 l-108 4
0 -47 c0 -112 75 -307 166 -428 98 -133 266 -272 422 -350 91 -46 254 -98 347
-111 44 -6 144 -14 223 -17 l142 -6 0 -341 -1 -341 -22 26 c-12 15 -49 62 -82
105 -91 121 -297 321 -405 396 -188 129 -372 219 -527 258 -77 19 -280 45
-420 53 -54 3 -76 1 -84 -9 -6 -8 -7 -14 -2 -14 5 0 29 -39 52 -86 130 -261
426 -544 722 -689 251 -123 503 -208 673 -226 49 -5 91 -10 92 -12 2 -1 6
-172 10 -380 5 -258 4 -377 -3 -377 -6 0 -23 17 -39 38 -100 133 -291 334
-444 466 -169 147 -380 266 -605 341 -274 91 -664 121 -626 47 5 -9 17 -46 26
-82 25 -97 65 -173 155 -293 116 -153 281 -292 517 -435 176 -106 316 -159
555 -208 112 -23 158 -28 295 -28 l163 -1 0 -343 c0 -300 2 -343 15 -349 9 -3
19 -3 22 0 3 4 6 160 7 347 l1 341 170 3 c173 3 251 15 450 68 185 49 361 138
575 291 138 98 252 205 329 307 107 142 142 208 165 315 8 33 17 68 21 77 16
38 -138 41 -361 7 -232 -35 -490 -136 -691 -270 -176 -118 -425 -351 -573
-539 -45 -58 -84 -107 -86 -109 -2 -2 -4 169 -4 382 l0 385 68 6 c178 16 365
75 657 208 254 116 493 310 661 537 67 90 134 208 134 234 0 9 7 20 16 25 33
18 4 30 -63 25 -160 -10 -362 -36 -449 -58 -178 -45 -449 -196 -639 -355 -89
-74 -255 -257 -329 -362 -26 -38 -50 -68 -52 -68 -2 0 -4 155 -4 345 l0 345
88 0 c111 0 288 17 369 36 113 25 272 94 377 164 222 147 362 318 435 529 22
63 46 210 36 220 -10 9 -210 -1 -275 -14 -160 -34 -419 -143 -558 -237 -193
-129 -332 -268 -426 -425 -21 -35 -39 -63 -40 -63 -1 0 -1 48 2 107 5 106 6
109 53 198 52 98 77 163 138 360 67 218 74 291 45 431 -26 128 -75 217 -167
307 -44 42 -87 77 -95 77 -8 0 -50 -35 -93 -77z m234 -82 c42 -59 59 -98 87
-196 31 -111 30 -212 -4 -340 -42 -158 -130 -405 -164 -460 l-32 -50 0 431 c0
237 -3 500 -7 584 l-6 154 46 -38 c26 -21 62 -59 80 -85z m-163 -466 c0 -316
-2 -575 -5 -575 -3 0 -15 17 -28 38 -68 108 -187 487 -194 622 -9 151 56 333
155 433 31 31 60 57 64 57 4 0 8 -259 8 -575z m-1189 -187 c41 -28 104 -72
140 -97 37 -25 115 -81 175 -124 139 -100 486 -344 599 -422 48 -33 129 -91
178 -129 87 -67 90 -70 65 -77 -15 -4 -98 -3 -184 3 -130 8 -177 15 -278 44
-265 77 -486 230 -639 446 -47 66 -116 219 -136 300 -13 55 -14 108 -3 108 5
0 42 -23 83 -52z m211 16 c416 -113 783 -383 937 -691 36 -72 52 -133 36 -133
-3 0 -49 33 -103 74 -53 40 -200 145 -327 233 -126 88 -288 201 -360 252 -71
51 -194 136 -272 189 -78 53 -142 100 -143 105 -1 18 110 4 232 -29z m2238 32
c0 -3 -44 -35 -97 -72 -141 -96 -203 -140 -248 -172 -100 -71 -240 -170 -485
-340 -146 -102 -289 -205 -318 -229 -60 -48 -72 -52 -72 -23 0 30 87 197 135
260 56 73 161 178 243 244 60 47 242 166 255 166 3 0 48 20 101 45 126 60 342
123 424 124 34 1 62 -1 62 -3z m70 -19 c0 -77 -86 -295 -156 -392 -179 -252
-499 -441 -803 -475 -110 -12 -297 -17 -306 -8 -8 8 32 44 101 93 172 122 272
192 369 260 103 71 297 209 400 284 50 36 115 82 145 103 30 21 93 65 140 97
47 33 91 60 98 60 6 1 12 -9 12 -22z m-2543 -801 c300 -39 660 -228 897 -470
143 -146 323 -380 314 -407 -2 -5 -38 15 -80 45 -147 105 -314 214 -463 304
-82 49 -224 135 -315 191 -91 55 -196 119 -235 142 -38 23 -86 51 -105 64 -19
12 -87 52 -150 90 l-115 67 70 -6 c39 -3 121 -12 182 -20z m2577 -62 c-82 -47
-201 -117 -264 -156 -63 -40 -155 -96 -205 -126 -49 -31 -106 -65 -125 -77
-19 -12 -105 -64 -190 -115 -156 -94 -380 -240 -477 -312 -80 -59 -83 -50 -16
48 110 162 290 360 418 459 174 134 372 242 545 296 100 31 308 65 414 68 l50
1 -150 -86z m-2778 33 c38 -24 119 -73 179 -109 61 -36 162 -98 225 -138 63
-40 205 -127 315 -193 397 -239 695 -440 695 -469 0 -13 -134 -3 -232 17 -120
24 -427 146 -588 232 -122 65 -333 223 -405 304 -62 70 -139 167 -189 239 -52
74 -94 160 -78 160 5 0 40 -20 78 -43z m2954 34 c0 -59 -183 -307 -326 -440
-90 -84 -244 -199 -336 -249 -144 -80 -477 -211 -598 -237 -93 -19 -240 -30
-240 -17 0 18 283 215 485 338 55 34 165 101 245 149 80 48 208 127 285 175
77 48 181 112 230 142 265 162 255 157 255 139z m-2915 -866 c294 -56 537
-157 745 -309 157 -116 377 -327 500 -481 90 -113 89 -113 55 -90 -38 24 -215
127 -360 209 -60 35 -199 108 -307 164 -109 56 -269 143 -355 193 -276 160
-336 194 -438 248 -55 28 -111 61 -125 72 l-25 21 115 -6 c63 -3 151 -12 195
-21z m3090 15 c-3 -5 -36 -26 -73 -46 -139 -76 -313 -174 -490 -277 -100 -59
-287 -160 -415 -226 -127 -65 -268 -140 -312 -166 -44 -26 -122 -72 -173 -101
-51 -30 -104 -61 -117 -70 -40 -26 -29 -4 36 76 192 235 411 434 619 563 67
41 104 60 255 127 93 41 281 91 430 114 108 17 249 20 240 6z m-3264 -100 c66
-38 123 -70 125 -70 2 0 81 -47 176 -104 207 -124 408 -236 572 -318 124 -62
216 -113 471 -262 175 -103 187 -112 178 -145 l-6 -24 -156 6 c-244 8 -493 69
-692 168 -197 98 -470 293 -562 402 -74 87 -158 209 -188 272 -25 54 -52 145
-43 145 2 0 58 -31 125 -70z m3259 14 c-30 -134 -192 -353 -363 -491 -102 -82
-306 -216 -417 -272 -181 -94 -455 -160 -690 -168 -151 -5 -155 -5 -168 16 -7
12 -10 26 -8 30 3 5 61 41 128 81 68 40 143 85 168 100 81 50 259 150 265 150
18 0 501 263 615 335 112 70 473 275 478 271 1 -2 -2 -25 -8 -52z"/>
<path d="M7350 10259 c-53 -87 -149 -159 -292 -217 -36 -15 -35 -33 2 -60 53
-40 75 -95 75 -192 -1 -122 -27 -160 -127 -185 -29 -7 -34 -23 -19 -53 27 -51
55 -232 55 -352 0 -149 -19 -212 -84 -275 -36 -35 -47 -40 -84 -39 -69 1 -128
44 -290 208 -136 138 -148 154 -150 189 -1 39 -11 49 -20 20 -6 -19 -86 -421
-86 -432 0 -8 -135 193 -157 234 -19 34 -19 132 -2 226 l11 56 49 -48 c50 -48
126 -86 154 -76 30 12 14 37 -40 62 -97 46 -176 164 -187 280 -4 40 -38 45
-75 11 -38 -35 -84 -56 -125 -56 -61 1 -120 20 -140 46 -24 30 -78 60 -78 43
0 -6 16 -43 35 -80 40 -79 47 -149 17 -186 -21 -28 -113 -93 -129 -93 -7 0
-13 -9 -13 -20 0 -11 5 -20 10 -20 6 0 10 -6 10 -14 0 -12 17 -28 82 -78 9 -7
30 -35 47 -62 23 -38 31 -62 31 -98 0 -29 -4 -48 -11 -48 -8 0 -8 -4 -2 -12 6
-7 13 -24 16 -38 5 -18 24 -34 73 -60 152 -78 263 -228 272 -368 6 -86 -11
-158 -63 -269 -48 -102 -94 -155 -196 -223 -53 -36 -72 -43 -110 -43 -73 1
-114 26 -129 78 -13 47 -45 105 -57 105 -10 0 -41 -75 -49 -120 -10 -50 -50
-132 -78 -159 -23 -22 -25 -22 -71 -6 -26 8 -50 14 -52 11 -12 -11 10 -64 36
-88 33 -31 43 -70 32 -119 -9 -39 -36 -96 -58 -121 -29 -33 -9 -48 61 -48 90
0 137 -21 195 -88 55 -62 51 -61 199 -41 166 23 314 -17 416 -111 115 -106
127 -196 49 -347 l-38 -71 20 -22 c19 -22 24 -22 155 -16 167 8 238 21 415 81
281 95 395 146 461 207 l44 40 2 -348 3 -349 25 0 25 0 3 343 c1 188 5 342 8
342 3 0 26 -17 52 -39 71 -59 154 -95 442 -193 182 -62 252 -76 418 -84 119
-6 134 -5 152 11 11 10 20 22 20 28 0 5 -18 45 -40 89 -46 92 -52 156 -21 224
73 160 289 250 511 214 123 -20 126 -20 184 43 62 68 104 87 191 87 71 0 91
15 62 48 -32 37 -57 102 -57 151 0 41 5 56 30 84 34 39 54 84 40 92 -5 3 -30
-2 -55 -11 -43 -14 -48 -14 -64 1 -28 24 -68 105 -81 160 -15 62 -41 125 -52
125 -13 0 -45 -58 -58 -105 -10 -35 -20 -47 -47 -60 -57 -27 -111 -24 -166 10
-136 85 -184 144 -248 300 -29 70 -33 92 -33 175 -1 89 1 100 33 165 46 93
142 189 234 234 38 18 71 40 73 49 3 10 10 25 16 36 6 12 6 22 -1 29 -18 18
-13 74 10 123 13 26 46 66 80 96 33 28 59 57 59 64 0 8 4 14 9 14 5 0 11 7 15
15 3 10 -6 20 -30 31 -19 9 -57 37 -84 61 -46 41 -50 49 -50 90 0 30 11 67 35
117 19 40 35 78 35 85 0 17 -54 -13 -79 -45 -15 -20 -35 -28 -83 -36 -78 -14
-104 -8 -163 38 -54 41 -89 43 -93 4 -14 -134 -89 -244 -198 -290 -24 -11 -44
-25 -45 -32 0 -7 -5 -2 -11 12 -11 24 -11 24 -20 -17 -8 -35 -31 -64 -156
-191 -161 -163 -219 -205 -289 -206 -40 -1 -48 3 -82 40 -61 65 -84 138 -85
269 0 122 36 337 63 368 18 21 9 30 -44 47 -61 19 -92 54 -106 118 -21 101 9
208 71 254 37 27 38 45 3 60 -112 45 -154 71 -214 130 -36 36 -75 79 -85 97
-24 41 -44 39 -74 -10z m12 -281 c-2 -117 -5 -215 -7 -216 -2 -2 -39 26 -83
63 -52 43 -92 87 -115 125 l-34 58 44 17 c29 11 70 43 116 89 40 40 74 73 77
74 3 1 3 -94 2 -210z m244 52 l51 -23 -34 -56 c-18 -31 -46 -67 -61 -81 -48
-43 -130 -110 -136 -110 -3 0 -6 96 -6 214 l0 214 68 -67 c39 -40 88 -78 118
-91z m-277 -326 l31 -35 0 -169 c0 -103 -4 -170 -10 -170 -5 0 -44 31 -87 68
-43 38 -104 88 -136 111 l-58 43 41 26 c51 33 77 86 86 174 l7 68 48 -40 c26
-22 61 -56 78 -76z m278 -54 c12 -26 55 -71 87 -87 17 -9 12 -15 -40 -53 -33
-24 -93 -74 -135 -112 -42 -37 -79 -68 -83 -68 -3 0 -6 81 -6 179 l0 179 73
65 72 65 11 -71 c6 -40 15 -83 21 -97z m-1481 -137 c7 -57 0 -210 -12 -271 -7
-33 -7 -32 -120 120 -62 84 -114 155 -114 158 0 3 35 5 78 5 64 0 82 4 107 22
45 34 53 29 61 -34z m2587 35 c27 -19 45 -23 110 -23 42 0 77 -2 77 -3 0 -2
-51 -73 -112 -158 l-113 -154 -8 43 c-11 58 -14 289 -4 305 11 16 14 16 50
-10z m-1493 -184 c69 -60 128 -113 132 -119 10 -14 10 -765 0 -765 -10 0 -121
92 -244 202 -48 42 -110 94 -137 114 l-49 37 36 25 c44 30 55 43 88 105 35 67
57 186 49 267 -5 58 -32 200 -51 270 l-7 25 29 -26 c16 -14 85 -75 154 -135z
m516 134 c-14 -53 -36 -168 -45 -242 -21 -173 38 -343 140 -405 l27 -16 -79
-65 c-43 -36 -138 -116 -211 -179 l-133 -115 -3 385 -2 384 37 35 c56 53 267
239 272 240 2 0 1 -10 -3 -22z m-1768 -201 c92 -134 99 -147 74 -141 -125 28
-322 92 -322 105 0 5 4 9 10 9 5 0 34 24 65 54 50 49 55 58 55 97 0 25 4 39 9
34 4 -6 54 -76 109 -158z m2985 59 c10 -14 40 -43 68 -63 l50 -38 -113 -37
c-117 -39 -238 -70 -238 -61 0 2 30 48 67 101 37 54 83 121 102 150 l36 53 5
-39 c4 -22 14 -51 23 -66z m-334 -103 c5 -72 5 -116 -2 -133 -15 -34 -158
-242 -163 -237 -5 5 -60 273 -69 339 -7 44 -6 46 14 41 30 -8 123 41 163 85
23 27 35 34 41 26 4 -7 11 -62 16 -121z m-2155 -104 c35 -50 220 -231 268
-263 29 -19 73 -40 98 -47 73 -20 77 -28 47 -96 -31 -72 -86 -244 -123 -391
-16 -62 -31 -112 -34 -112 -3 0 -52 80 -110 178 -57 97 -131 220 -165 272 -34
53 -64 106 -68 119 -3 13 5 74 18 135 12 61 26 137 30 169 8 62 16 69 39 36z
m1891 -31 c4 -29 18 -105 31 -170 25 -128 23 -154 -19 -210 -25 -33 -253 -411
-282 -468 -8 -16 -19 -30 -23 -30 -4 0 -16 37 -26 83 -25 107 -101 346 -133
420 -30 68 -26 76 47 96 70 19 144 74 252 186 55 56 106 112 114 124 23 32 32
26 39 -31z m-2407 -3 c61 -14 124 -25 139 -25 25 0 36 -12 96 -107 37 -58 66
-108 64 -109 -1 -1 -41 8 -90 21 -48 13 -129 29 -181 35 l-93 12 -5 62 c-4 38
-14 75 -28 99 -12 20 -20 37 -17 37 2 0 54 -11 115 -25z m2976 -30 c-18 -38
-25 -68 -22 -98 l3 -42 -110 -17 c-61 -9 -135 -23 -165 -32 -30 -8 -66 -19
-79 -22 -28 -8 -33 -18 55 119 55 84 67 97 91 97 15 0 73 11 128 24 55 13 105
24 112 25 7 1 2 -20 -13 -54z m-2804 -246 c63 -17 131 -35 150 -41 37 -10 67
-46 159 -192 43 -69 203 -368 198 -372 -1 -1 -43 4 -92 11 -50 7 -144 16 -208
20 -103 7 -117 10 -112 24 4 9 11 51 18 94 25 170 -58 342 -214 446 -77 51
-59 53 101 10z m2655 0 c-113 -72 -204 -203 -228 -330 -10 -57 -4 -135 19
-215 5 -20 1 -21 -103 -28 -108 -7 -247 -22 -291 -31 -21 -5 -19 0 24 87 66
131 126 237 207 360 l70 106 61 17 c33 9 99 27 146 40 47 13 98 24 114 24 29
1 28 0 -19 -30z m-1728 -165 c54 -50 146 -132 206 -183 l107 -92 -2 -596 c-3
-600 -6 -645 -37 -576 -7 16 -54 93 -106 173 -161 253 -252 404 -421 701 l-43
75 49 175 c89 319 124 423 141 417 4 -2 52 -44 106 -94z m829 25 c36 -102 79
-243 118 -390 l37 -136 -119 -205 c-136 -233 -284 -475 -383 -625 -37 -57 -70
-112 -74 -123 -7 -22 -20 -26 -30 -9 -4 5 -4 278 0 605 l8 595 121 104 c67 57
157 137 201 179 44 41 84 74 89 72 6 -1 20 -31 32 -67z m-1666 -502 c0 -40 32
-208 58 -307 25 -91 76 -359 70 -365 -4 -4 -276 89 -282 96 -1 2 -23 67 -49
144 -25 77 -48 147 -51 155 -4 10 11 26 45 49 67 46 113 101 156 189 20 39 40
72 45 72 4 0 8 -15 8 -33z m320 2 c74 -11 138 -23 142 -27 4 -4 72 -117 151
-252 79 -135 178 -301 219 -370 170 -284 205 -345 199 -348 -4 -1 -78 25 -166
59 -88 34 -279 101 -424 150 -145 49 -266 90 -268 93 -3 2 -17 78 -33 168 -15
90 -39 208 -54 263 -30 118 -56 245 -56 276 0 21 3 21 78 14 42 -3 138 -15
212 -26z m1994 -86 c-12 -65 -32 -152 -43 -193 -11 -41 -30 -129 -41 -195 -11
-66 -25 -143 -31 -172 l-10 -52 -247 -82 c-136 -45 -292 -99 -347 -121 -127
-51 -266 -100 -270 -96 -2 2 16 35 39 73 39 64 147 245 424 710 56 94 105 176
110 183 9 13 289 55 403 60 l36 2 -23 -117z m95 54 c49 -103 99 -159 210 -234
2 -1 -10 -38 -26 -80 -17 -43 -41 -113 -53 -155 -22 -75 -24 -78 -64 -93 -149
-54 -240 -85 -244 -81 -6 7 35 222 69 359 34 135 59 267 59 315 0 48 16 39 49
-31z m-2939 -324 c17 -52 29 -97 27 -100 -3 -3 -44 8 -90 23 l-85 27 29 40
c16 22 29 43 29 47 0 4 7 24 15 45 22 51 36 36 75 -82z m3500 67 c8 -19 26
-53 41 -76 l27 -40 -85 -28 c-46 -15 -87 -26 -89 -23 -6 6 54 188 68 204 13
16 20 10 38 -37z m-3210 -167 c21 -57 34 -103 30 -103 -4 0 -58 17 -120 39
l-113 38 -17 64 c-9 35 -20 75 -24 88 -7 19 -5 23 7 18 36 -14 105 -16 137 -4
33 12 36 11 49 -13 8 -14 31 -71 51 -127z m3033 134 c29 6 53 10 54 9 0 0 -9
-39 -21 -84 l-22 -84 -114 -39 c-63 -21 -117 -39 -122 -39 -4 0 -3 10 2 23 5
12 28 70 50 129 l41 106 40 -16 c33 -13 50 -14 92 -5z m-3411 -159 c54 -18 98
-35 98 -38 0 -3 -24 -15 -54 -28 -29 -13 -77 -39 -106 -58 -57 -37 -68 -38
-50 -4 14 26 18 107 7 138 -5 12 -5 22 0 22 4 0 52 -15 105 -32z m3708 28 c0
-3 -5 -17 -10 -32 -10 -27 -3 -88 16 -138 6 -17 1 -15 -37 8 -24 15 -75 43
-113 61 -56 28 -66 36 -50 42 32 12 179 61 187 62 4 1 7 -1 7 -3z m-3320 -167
c0 -4 -30 -29 -67 -55 -38 -26 -98 -69 -135 -95 -38 -27 -68 -45 -68 -41 0 25
-80 98 -134 122 l-59 27 69 40 c38 22 89 51 114 65 l45 24 118 -39 c64 -22
117 -43 117 -48z m3113 55 c29 -14 78 -42 111 -62 l59 -35 -60 -27 c-53 -24
-133 -97 -133 -122 0 -5 -21 8 -47 28 -27 19 -87 62 -135 95 -49 33 -88 63
-88 67 0 7 205 80 228 81 7 1 36 -11 65 -25z m-2906 -120 c87 -31 161 -59 165
-63 4 -3 -7 -43 -24 -87 l-30 -81 -57 37 c-104 69 -159 84 -304 85 -70 0 -127
0 -127 1 0 1 28 20 63 42 34 23 82 59 107 81 25 22 46 40 47 41 1 0 73 -25
160 -56z m2735 -76 c27 -17 48 -30 48 -31 0 -1 -57 -2 -127 -2 -145 -1 -200
-16 -305 -85 l-56 -37 -26 71 c-14 39 -27 77 -28 85 -3 14 7 19 201 86 l125
43 60 -51 c34 -28 82 -63 108 -79z m-2387 -45 c61 -19 189 -62 285 -95 96 -33
229 -78 295 -100 66 -22 133 -45 148 -50 l28 -11 -23 -24 c-40 -44 -149 -92
-410 -181 -81 -28 -180 -58 -220 -66 -76 -16 -278 -33 -278 -24 0 3 12 32 27
64 52 111 34 242 -44 326 l-25 26 32 84 c40 103 38 101 59 93 9 -4 66 -22 126
-42z m1893 -43 l33 -91 -26 -31 c-53 -63 -70 -108 -70 -188 0 -61 5 -86 28
-134 15 -32 27 -61 27 -64 0 -9 -202 9 -280 24 -95 20 -421 134 -525 184 -44
21 -90 49 -103 63 l-23 25 138 47 c210 71 757 254 763 254 3 1 20 -40 38 -89z"/>
<path d="M2844 7712 c-33 -22 -160 -352 -309 -802 -35 -107 -96 -288 -134
-401 -142 -418 -254 -826 -307 -1119 -102 -574 -55 -1049 134 -1327 73 -108
227 -226 360 -277 51 -20 206 -56 240 -56 1 0 2 -137 2 -304 0 -167 3 -311 6
-320 3 -9 14 -16 25 -16 39 0 42 29 35 342 -4 164 -5 298 -3 298 31 0 191 35
239 53 90 33 224 124 301 207 72 75 146 211 186 340 69 220 77 620 21 997 -12
76 -25 152 -30 168 -6 17 -21 80 -34 140 -50 226 -155 587 -266 910 -22 66
-64 190 -91 275 -101 312 -244 704 -302 829 -30 64 -48 80 -73 63z m-10 -912
c-6 -77 -7 -83 -21 -65 -31 42 -180 351 -176 365 30 95 168 480 181 502 16 28
17 13 20 -344 2 -205 0 -411 -4 -458z m109 713 c20 -54 61 -172 93 -263 l56
-165 -87 -172 c-48 -95 -93 -180 -101 -190 -11 -15 -13 29 -14 297 0 173 -3
383 -7 465 -7 179 2 183 60 28z m-113 -1275 c0 -274 -3 -407 -10 -403 -6 4
-44 57 -85 118 -90 135 -95 142 -165 237 -67 90 -150 219 -150 234 0 11 144
460 182 569 l21 58 103 -201 104 -202 0 -410z m433 322 c34 -105 42 -140 34
-155 -17 -34 -128 -197 -187 -275 -31 -41 -92 -129 -136 -194 l-79 -119 -3
414 -2 414 23 45 c67 130 178 344 184 353 3 5 32 -71 63 -169 32 -99 78 -240
103 -314z m92 -287 c62 -199 72 -233 113 -388 61 -228 63 -197 -19 -295 -40
-47 -113 -132 -164 -190 -89 -102 -293 -357 -351 -439 -16 -22 -32 -41 -36
-41 -13 0 -10 828 3 853 22 42 163 252 239 357 42 58 98 140 125 183 27 42 50
77 51 77 2 0 19 -53 39 -117z m-895 35 c25 -40 72 -108 105 -153 33 -44 106
-150 162 -235 l103 -155 0 -425 c-1 -403 -2 -424 -18 -404 -9 11 -53 67 -97
124 -92 119 -222 276 -389 470 -65 76 -116 144 -116 155 0 33 93 389 125 480
8 22 26 79 40 128 14 48 29 87 33 87 4 0 27 -33 52 -72z m-240 -690 c10 -13
98 -118 196 -233 99 -116 232 -281 297 -366 l117 -156 -2 -387 -3 -387 -102
128 c-91 115 -129 161 -236 283 -17 19 -69 78 -116 130 -48 52 -131 146 -185
208 l-98 114 6 86 c15 199 84 602 103 602 3 0 13 -10 23 -22z m1324 -39 c34
-129 86 -479 86 -577 0 -52 -2 -56 -77 -145 -42 -51 -123 -141 -178 -202 -143
-157 -223 -250 -359 -418 -65 -81 -120 -147 -122 -147 -2 0 -4 173 -4 384 l0
384 83 109 c145 194 242 315 361 451 64 74 133 154 153 178 19 25 38 43 40 41
2 -2 10 -28 17 -58z m-1318 -822 c65 -76 163 -188 217 -250 113 -128 309 -371
354 -437 30 -44 31 -48 32 -164 l2 -119 -63 7 c-175 20 -372 133 -483 276 -75
98 -137 247 -170 410 -18 88 -33 440 -18 425 5 -5 63 -72 129 -148z m1410 1
c-10 -207 -48 -407 -96 -506 -11 -23 -20 -45 -20 -50 0 -21 -100 -160 -146
-202 -135 -125 -316 -209 -452 -210 l-33 0 3 117 c3 134 -4 118 133 294 90
116 225 276 359 424 50 55 98 109 107 120 9 11 42 50 74 88 31 37 61 67 67 67
8 0 9 -43 4 -142z"/>
<path d="M11988 7674 c-41 -32 -56 -66 -62 -139 -5 -57 -19 -71 -83 -81 -32
-5 -58 -1 -103 16 -59 22 -110 22 -110 -1 0 -6 -8 -22 -19 -35 -26 -33 -45
-142 -37 -214 4 -33 21 -89 38 -126 17 -36 33 -85 36 -109 6 -60 -20 -77 -114
-74 -64 2 -69 1 -91 -27 -67 -83 -68 -169 -5 -295 46 -89 53 -139 25 -179 -24
-36 -33 -40 -86 -40 -50 0 -107 -21 -128 -46 -18 -21 -28 -177 -17 -254 5 -39
18 -79 32 -101 46 -68 86 -159 86 -192 0 -45 -45 -103 -90 -118 -56 -18 -127
-70 -144 -106 -20 -41 -21 -142 -2 -186 7 -18 40 -62 73 -98 103 -113 107
-177 20 -262 l-52 -51 0 -155 c0 -141 2 -160 22 -201 35 -70 93 -124 179 -165
159 -75 200 -124 215 -253 11 -102 23 -126 77 -162 100 -66 231 -93 425 -88
l117 3 0 -410 c0 -306 3 -414 12 -423 15 -15 55 -16 63 -2 7 11 11 202 14 596
l1 231 168 6 c176 6 235 17 326 61 85 42 106 71 117 162 13 99 42 167 88 203
20 16 77 49 127 74 105 52 164 111 188 185 21 65 30 174 21 267 -7 75 -9 80
-47 114 -98 88 -92 164 21 282 41 42 65 78 72 104 12 44 6 139 -11 177 -13 29
-90 81 -143 98 -47 15 -87 70 -87 120 0 34 33 109 88 200 26 43 27 50 26 175
-1 72 -6 142 -12 156 -13 33 -68 59 -125 59 -60 0 -75 7 -94 44 -24 46 -18 87
27 176 64 127 64 205 0 283 -31 36 -33 37 -99 37 -118 0 -138 41 -81 167 56
123 59 242 8 354 -29 62 -50 68 -130 39 -67 -24 -122 -23 -162 3 -19 13 -24
27 -29 79 -8 84 -10 89 -60 122 -39 26 -47 27 -122 22 -44 -3 -84 -6 -90 -7
-5 0 -62 2 -125 6 l-115 7 -37 -28z m200 -22 c12 -4 14 -20 8 -86 -3 -45 -6
-143 -6 -218 l0 -137 -87 97 c-47 53 -100 111 -116 129 l-30 32 13 74 c15 87
14 87 60 109 34 17 115 17 158 0z m252 -2 c21 -11 41 -28 43 -37 9 -33 21
-118 19 -135 -1 -10 -50 -72 -109 -139 -98 -109 -109 -118 -114 -97 -4 13 -7
110 -8 215 -1 215 -8 191 64 206 42 9 67 6 105 -13z m-680 -236 c33 -11 57
-12 98 -4 29 5 58 12 63 16 14 8 36 -13 160 -158 l109 -127 -2 -166 -3 -167
-45 64 c-48 68 -132 172 -334 416 -71 86 -121 152 -110 148 10 -5 39 -15 64
-22z m935 -86 c-135 -160 -315 -383 -367 -456 l-48 -66 0 170 0 169 81 95 c45
52 101 116 124 142 l43 48 65 -16 c63 -16 69 -16 124 2 32 11 60 18 62 17 2
-1 -36 -49 -84 -105z m-999 30 c27 -35 74 -94 105 -133 149 -183 276 -346 321
-412 27 -40 54 -75 59 -79 5 -3 9 -68 9 -146 l0 -140 -249 248 c-138 136 -248
251 -245 255 8 14 -18 101 -49 169 -28 57 -31 75 -31 155 0 76 13 145 27 145
2 0 26 -28 53 -62z m1145 20 c6 -25 9 -80 6 -128 -3 -69 -10 -97 -37 -153 -18
-38 -35 -90 -38 -115 -4 -46 -9 -51 -248 -288 l-244 -242 0 133 0 133 58 84
c53 78 98 136 354 455 53 67 103 131 110 143 19 29 26 25 39 -22z m-904 -735
l253 -257 0 -139 c0 -82 -4 -137 -9 -135 -5 2 -52 51 -103 109 -143 164 -247
279 -412 457 -83 90 -152 167 -154 173 -2 5 20 9 50 9 35 0 63 7 83 19 17 11
32 20 34 20 3 1 119 -115 258 -256z m880 240 c15 -10 54 -20 88 -23 l60 -5
-115 -123 c-144 -155 -234 -255 -412 -457 -78 -88 -145 -164 -149 -169 -5 -6
-9 55 -9 136 l0 146 251 256 c138 141 253 256 255 256 3 0 17 -8 31 -17z
m-1286 -113 c30 -36 119 -137 198 -225 79 -88 196 -221 259 -295 64 -74 135
-156 159 -182 l43 -47 0 -141 c0 -77 -3 -140 -7 -139 -5 0 -26 21 -47 47 -22
26 -167 178 -323 337 -276 283 -283 291 -283 331 0 28 -14 69 -47 134 -53 108
-63 166 -39 225 10 22 20 35 25 29 5 -5 33 -38 62 -74z m1505 4 c7 -51 -5 -92
-57 -195 -28 -54 -39 -88 -39 -119 0 -43 -3 -47 -138 -185 -76 -77 -224 -229
-330 -338 l-192 -198 0 143 1 143 41 45 c22 25 92 104 153 175 62 72 163 186
224 255 61 69 155 176 209 237 107 124 114 126 128 37z m35 -455 c93 -1 96 -6
42 -70 -111 -130 -325 -369 -444 -493 -112 -119 -196 -211 -293 -324 -44 -51
-84 -92 -88 -92 -4 0 -8 71 -8 159 l0 159 78 86 c42 47 178 191 302 321 124
130 241 255 260 278 l35 43 31 -33 c28 -29 38 -33 85 -34z m-1405 -104 c82
-88 214 -227 294 -310 80 -82 165 -174 188 -203 l42 -54 0 -154 c0 -88 -4
-154 -9 -154 -5 0 -40 35 -77 78 -37 42 -162 181 -279 307 -282 306 -518 575
-511 582 3 3 38 9 78 13 62 5 74 10 92 33 11 15 23 26 26 25 4 -2 74 -75 156
-163z m-230 -125 c77 -91 198 -228 269 -305 183 -196 424 -467 463 -519 20
-28 22 -40 22 -165 l0 -136 -112 111 c-181 177 -309 294 -461 422 -78 66 -159
138 -181 160 -38 39 -39 43 -40 114 -1 72 -3 77 -60 171 -51 85 -59 105 -63
161 -6 70 4 159 16 154 5 -2 71 -77 147 -168z m1759 102 c9 -79 -8 -163 -43
-215 -72 -104 -103 -197 -84 -248 10 -24 6 -31 -41 -76 -29 -28 -113 -101
-187 -163 -157 -131 -359 -318 -477 -440 l-83 -85 0 141 0 141 153 174 c85 96
222 248 306 339 85 91 217 240 294 332 78 92 144 165 148 162 4 -2 10 -30 14
-62z m-1595 -743 c156 -134 428 -393 507 -482 l83 -92 0 -122 c0 -68 -2 -123
-4 -123 -6 0 -194 169 -452 405 -120 110 -274 250 -343 311 -69 62 -148 134
-175 162 l-48 50 23 15 c13 9 45 21 71 27 27 7 58 24 74 41 l28 29 81 -78 c44
-43 114 -107 155 -143z m1529 192 c16 -17 41 -33 57 -36 16 -3 48 -15 71 -25
l42 -19 -32 -37 c-18 -20 -128 -122 -245 -228 -118 -105 -258 -231 -312 -281
-311 -284 -365 -333 -396 -358 l-34 -29 0 127 0 126 68 75 c76 85 379 370 557
526 66 58 136 123 155 145 19 23 37 42 38 42 2 1 16 -12 31 -28z m-1926 -178
c55 -63 523 -505 802 -758 55 -49 119 -107 142 -129 l43 -39 0 -93 c0 -52 -4
-94 -8 -94 -5 0 -21 14 -38 31 -68 72 -299 269 -484 411 -47 36 -115 92 -151
124 -36 33 -93 82 -127 109 -57 46 -62 53 -62 90 -1 60 -34 122 -105 196 -36
37 -69 79 -75 93 -17 46 -9 140 10 119 4 -4 28 -31 53 -60z m2122 -61 c-3 -13
-39 -59 -80 -102 -75 -81 -95 -120 -95 -187 0 -26 -10 -40 -57 -80 -31 -26
-106 -91 -167 -143 -61 -52 -154 -127 -206 -167 -52 -39 -153 -122 -223 -185
-71 -62 -149 -130 -173 -152 l-44 -38 0 94 0 94 58 55 c31 30 102 95 157 145
203 181 695 645 761 718 l69 75 3 -51 c2 -29 1 -63 -3 -76z m-1845 -523 c58
-52 161 -139 230 -194 145 -114 316 -263 413 -359 l67 -67 0 -85 0 -85 -33 28
c-19 15 -128 107 -243 203 -115 96 -258 223 -319 281 -60 59 -168 162 -238
230 l-128 125 38 42 37 42 36 -33 c19 -18 82 -76 140 -128z m1750 72 c-176
-180 -487 -470 -650 -608 -118 -99 -234 -197 -257 -218 l-43 -37 0 86 c0 85 0
86 37 127 50 55 298 272 448 391 66 52 183 152 260 220 l140 125 35 -40 c19
-23 33 -43 30 -46z m-1701 -370 c53 -51 191 -174 306 -274 301 -259 335 -290
335 -299 0 -11 -207 -10 -295 2 -81 10 -169 41 -210 74 -24 19 -29 33 -36 89
-5 37 -14 85 -20 108 -25 82 -115 154 -261 209 -62 23 -118 77 -145 139 -16
37 -30 233 -19 274 6 25 12 20 128 -101 67 -70 165 -169 217 -221z m1760 239
c1 -174 -58 -294 -159 -325 -14 -4 -59 -25 -101 -46 -130 -64 -175 -128 -189
-260 -4 -43 -13 -85 -19 -92 -23 -28 -149 -77 -222 -87 -95 -12 -299 -13 -299
-1 0 5 77 76 172 158 322 278 433 380 618 570 140 144 187 186 192 174 4 -9 7
-50 7 -91z"/>
</g>
</svg>
